<svg xmlns="http://www.w3.org/2000/svg" style="width:0; height:0; visibility:hidden;">
    <symbol id="icon_development" viewBox="0 0 71.68 71.68">
       <g> <g> <path d="M47.936,34.272l4.479-4.031l-2.688-4.479l-5.6,2.016c-0.447-0.447-0.896-0.672-1.345-1.119l0.446-5.824l-4.928-1.344
			l-2.688,5.375c-0.672,0-1.119,0.226-1.792,0.226l-4.03-4.48l-4.48,2.688l2.017,5.601c-0.447,0.447-0.896,0.896-1.119,1.344
			l-5.824-0.447L19.04,34.72l5.376,2.688c0,0.672,0.224,1.119,0.224,1.791l-4.479,4.033l2.688,4.479l5.6-2.021
			c0.448,0.449,0.896,0.673,1.346,1.121l-0.448,5.824l4.928,1.344l2.688-5.377c0.672,0,1.119-0.223,1.791-0.223l4.032,4.479
			l4.479-2.688l-2.24-5.375c0.447-0.449,0.896-0.896,1.119-1.344l5.824,0.447l1.344-4.928l-5.375-2.69
			C48.158,35.393,47.936,34.944,47.936,34.272z M39.199,41.889c-2.911,1.568-6.496,0.672-8.288-2.24s-0.673-6.496,2.239-8.289
			c2.913-1.791,6.497-0.672,8.288,2.24C43.007,36.512,41.889,40.32,39.199,41.889z"/> <path d="M64.96,0H6.72C2.911,0,0,2.912,0,6.72v58.241c0,3.807,2.911,6.719,6.72,6.719h58.24c3.808,0,6.72-2.912,6.72-6.719V6.72
			C71.68,3.136,68.768,0,64.96,0z M25.088,4.928c1.344,0,2.688,1.12,2.688,2.688c0,1.568-1.12,2.688-2.688,2.688
			c-1.345,0-2.688-1.12-2.688-2.688C22.4,6.049,23.743,4.928,25.088,4.928z M17.695,4.928c1.346,0,2.688,1.12,2.688,2.688
			c0,1.568-1.12,2.688-2.688,2.688c-1.566,0-2.688-1.12-2.688-2.688C15.008,6.049,16.128,4.928,17.695,4.928z M10.08,4.928
			c1.344,0,2.688,1.12,2.688,2.688c0,1.568-1.12,2.688-2.688,2.688s-2.688-1.12-2.688-2.688C7.392,6.049,8.736,4.928,10.08,4.928z
			 M63.839,59.359c0,2.466-2.017,4.48-4.479,4.48H12.32c-2.464,0-4.479-2.016-4.479-4.48V19.04c0-2.464,2.016-4.479,4.479-4.479
			h19.04c4.256,0,4.48,0,4.48-2.24c0-2.912,2.016-4.479,4.479-4.479h19.041c2.464,0,4.479,2.016,4.479,4.479L63.839,59.359
			L63.839,59.359z"/> </g> </g>                
    </symbol>
	
    <symbol id="icon_drawing" viewBox="0 0 512 512">
       <g transform="translate(1)"> <g> <g> <path d="M399.32,399.36c-13.653,12.8-13.653,34.133,0,47.787c6.827,6.827,15.36,10.24,23.893,10.24s17.067-3.413,23.893-10.24
				c13.653-12.8,13.653-34.133,0-47.787C434.307,385.707,412.973,385.707,399.32,399.36z M435.16,436.053
				c-6.827,6.827-17.067,6.827-23.893,0s-6.827-17.067,0-23.893c3.413-3.413,7.68-5.12,11.947-5.12s8.533,1.707,11.947,5.12
				C441.987,418.987,441.987,429.227,435.16,436.053z"/> <path d="M505.133,409.6L351.533,256l60.587-60.587c0,0,0.001-0.001,0.001-0.001l35.839-35.839c0,0,0.001-0.001,0.001-0.001
				l52.052-52.052c14.507-14.507,14.507-38.4,0-52.907l-43.52-43.52C449.667,4.267,440.28,0,430.04,0s-19.627,4.267-26.453,11.093
				l-52.053,52.053l-35.84,35.84l-60.587,60.587L103.213,7.68c-9.387-9.387-26.453-9.387-35.84,0L6.787,68.267
				c-10.24,9.387-10.24,25.6,0,35.84l17.92,17.92l0,0c0,0,0,0,0,0l48.64,48.64c0,0,0,0,0,0s0,0,0,0l47.786,47.786c0,0,0,0,0,0
				c0,0,0,0,0.001,0.001L158.68,256L21.694,392.986c-2.554,1.127-3.931,3.43-4.667,6.374l-17.92,102.4
				c0,3.413,0.853,5.973,2.56,7.68C3.373,511.147,5.08,512,7.64,512c0.853,0,0.853,0,1.707,0l98.445-18.2
				c0.681,0.18,1.416,0.28,2.248,0.28c2.56,0,5.12-0.853,5.973-2.56l139.093-139.093l11.093,11.093c0,0,0,0,0.001,0.001
				c0,0,0.001,0.001,0.001,0.001l23.892,23.892c0,0,0,0,0.001,0.001c0,0,0.001,0.001,0.001,0.001l118.612,118.612
				c4.267,4.267,9.387,5.973,14.507,5.973s10.24-1.707,13.653-5.973l68.267-68.267C512.813,430.08,512.813,417.28,505.133,409.6z
				 M110.04,472.747l-29.858-29.858l283.716-282.898l29.449,29.449L110.04,472.747z M415.533,23.04c7.68-7.68,21.333-7.68,29.013,0
				l43.52,43.52c7.68,7.68,7.68,21.333,0,29.013l-46.08,46.08L369.453,69.12L415.533,23.04z M357.507,81.067l36.267,36.267
				L430.04,153.6l-23.893,23.893l-72.533-72.533L357.507,81.067z M163.373,236.8l18.347-18.347c3.413-3.413,3.413-8.533,0-11.947
				s-8.533-3.413-11.947,0l-18.347,18.347l-12.373-12.373l29.867-29.867c3.413-3.413,3.413-8.533,0-11.947s-8.533-3.413-11.947,0
				l-29.867,29.867l-11.947-11.947l17.92-17.92c3.413-3.413,3.413-8.533,0-11.947s-8.533-3.413-11.947,0l-17.92,17.92
				l-11.947-11.947l29.867-29.867c3.413-3.413,3.413-8.533,0-11.947s-8.533-3.413-11.947,0L79.32,152.747l-12.8-12.8l17.92-17.92
				c3.413-3.413,3.413-8.533,0-11.947s-8.533-3.413-11.947,0L54.573,128l-11.947-11.947l29.867-29.867
				c3.413-3.413,3.413-8.533,0-11.947s-8.533-3.413-11.947,0L30.68,104.107L18.733,92.16c-3.413-3.413-3.413-8.533,0-11.947
				L79.32,19.627c1.707-1.707,3.413-2.56,5.973-2.56c1.707,0,4.267,0.853,5.973,2.56L243.16,171.52l-72.533,72.533L163.373,236.8z
				 M321.667,117.76l29.858,29.858L67.809,430.516L38.36,401.067L321.667,117.76z M31.533,418.133l27.996,27.996
				c0.426,0.975,1.047,1.9,1.871,2.724l30.846,30.845l-73.512,12.674L31.533,418.133z M493.187,425.813L424.92,494.08
				c-0.853,0.853-3.413,0.853-4.267,0l-88.32-88.32l30.293-30.293c3.413-3.413,3.413-8.533,0-11.947
				c-3.413-3.413-8.533-3.413-11.947,0l-30.293,30.293l-12.373-12.373l17.92-17.92c3.413-3.413,3.413-8.533,0-11.947
				c-3.413-3.413-8.533-3.413-11.947,0l-17.92,17.92l-11.947-11.947l29.867-29.867c3.413-3.413,3.413-8.533,0-11.947
				c-3.413-3.413-8.533-3.413-11.947,0L272.173,345.6l-5.12-5.12l72.533-72.533l153.6,153.6
				C494.04,422.4,494.04,424.96,493.187,425.813z"/> </g> </g> </g>                
    </symbol>
    <symbol id="icon_facebook" viewBox="0 0 30 30">
       <g transform="matrix(0.333333, 0, 0, 0.333333, 0, 0)"> <path id="Facebook__x28_alt_x29_" d="M90,15.001C90,7.119,82.884,0,75,0H15C7.116,0,0,7.119,0,15.001v59.998   C0,82.881,7.116,90,15.001,90H45V56H34V41h11v-5.844C45,25.077,52.568,16,61.875,16H74v15H61.875C60.548,31,59,32.611,59,35.024V41   h15v15H59v34h16c7.884,0,15-7.119,15-15.001V15.001z" fill="#cc7878"/> </g>                
    </symbol>




<symbol id="icon_telegram" viewBox="0 0 512 512" aria-label="Telegram" role="img">
  <rect width="512" height="512" rx="15%" fill="#cc7878"/>
  <path fill="#c8daea" d="M199 404c-11 0-10-4-13-14l-32-105 245-144"/>
  <path fill="#a9c9dd" d="M199 404c7 0 11-4 16-8l45-43-56-34"/>
  <path fill="#f6fbfe" d="M204 319l135 99c14 9 26 4 30-14l55-258c5-22-9-32-24-25L79 245c-21 8-21 21-4 26l83 26 190-121c9-5 17-3 11 4"/>
</symbol>


    <symbol id="icon_github" viewBox="0 0 30 30">
       <g transform="matrix(0.06841, 0, 0, 0.068409, 0, 0)"> <g> <path d="M158.173,352.599c-3.049,0.568-4.381,1.999-3.999,4.281c0.38,2.283,2.093,3.046,5.138,2.283    c3.049-0.76,4.38-2.095,3.997-3.997C162.931,353.074,161.218,352.216,158.173,352.599z" fill="#cc7878"/> <path d="M141.898,354.885c-3.046,0-4.568,1.041-4.568,3.139c0,2.474,1.619,3.518,4.853,3.138c3.046,0,4.57-1.047,4.57-3.138    C146.753,355.553,145.134,354.502,141.898,354.885z" fill="#cc7878"/> <path d="M119.629,354.022c-0.76,2.095,0.478,3.519,3.711,4.284c2.855,1.137,4.664,0.568,5.424-1.714    c0.572-2.091-0.666-3.61-3.711-4.568C122.197,351.265,120.39,351.922,119.629,354.022z" fill="#cc7878"/> <path d="M414.41,24.123C398.326,8.042,378.964,0,356.309,0H82.225C59.577,0,40.208,8.042,24.123,24.123    C8.042,40.207,0,59.576,0,82.225v274.088c0,22.65,8.042,42.017,24.123,58.098c16.084,16.084,35.454,24.126,58.102,24.126h63.953    c4.184,0,7.327-0.144,9.42-0.424c2.092-0.288,4.184-1.526,6.279-3.717c2.096-2.187,3.14-5.376,3.14-9.562    c0-0.568-0.05-7.046-0.144-19.417c-0.097-12.375-0.144-22.176-0.144-29.41l-6.567,1.143c-4.187,0.76-9.469,1.095-15.846,0.999    c-6.374-0.096-12.99-0.76-19.841-1.998c-6.855-1.239-13.229-4.093-19.13-8.562c-5.898-4.477-10.085-10.328-12.56-17.559    l-2.856-6.571c-1.903-4.373-4.899-9.229-8.992-14.554c-4.093-5.332-8.232-8.949-12.419-10.852l-1.999-1.428    c-1.331-0.951-2.568-2.098-3.711-3.429c-1.141-1.335-1.997-2.669-2.568-3.997c-0.571-1.335-0.097-2.43,1.427-3.289    c1.524-0.855,4.281-1.279,8.28-1.279l5.708,0.855c3.808,0.76,8.516,3.042,14.134,6.851c5.614,3.806,10.229,8.754,13.846,14.843    c4.38,7.806,9.657,13.75,15.846,17.843c6.184,4.097,12.419,6.143,18.699,6.143s11.704-0.476,16.274-1.424    c4.565-0.954,8.848-2.385,12.847-4.288c1.713-12.751,6.377-22.559,13.988-29.41c-10.848-1.143-20.602-2.854-29.265-5.14    c-8.658-2.286-17.605-5.995-26.835-11.136c-9.234-5.14-16.894-11.512-22.985-19.13c-6.09-7.618-11.088-17.61-14.987-29.978    c-3.901-12.375-5.852-26.652-5.852-42.829c0-23.029,7.521-42.637,22.557-58.814c-7.044-17.32-6.379-36.732,1.997-58.242    c5.52-1.714,13.706-0.428,24.554,3.855c10.85,4.286,18.794,7.951,23.84,10.992c5.046,3.042,9.089,5.614,12.135,7.71    c17.705-4.949,35.976-7.423,54.818-7.423c18.841,0,37.115,2.474,54.821,7.423l10.849-6.852c7.426-4.57,16.18-8.757,26.269-12.562    c10.088-3.806,17.795-4.854,23.127-3.14c8.562,21.51,9.328,40.922,2.279,58.241c15.036,16.179,22.559,35.786,22.559,58.815    c0,16.18-1.951,30.505-5.852,42.969c-3.898,12.467-8.939,22.463-15.13,29.981c-6.184,7.519-13.894,13.843-23.124,18.986    c-9.232,5.137-18.178,8.853-26.84,11.132c-8.661,2.286-18.414,4.004-29.263,5.147c9.891,8.562,14.839,22.072,14.839,40.538v68.238    c0,3.237,0.472,5.852,1.424,7.851c0.958,1.998,2.478,3.374,4.571,4.141c2.102,0.76,3.949,1.235,5.571,1.424    c1.622,0.191,3.949,0.287,6.995,0.287h63.953c22.648,0,42.018-8.042,58.095-24.126c16.084-16.084,24.126-35.454,24.126-58.102    V82.225C438.533,59.576,430.491,40.204,414.41,24.123z" fill="#cc7878"/> <path d="M86.793,319.195c-1.331,0.948-1.141,2.471,0.572,4.565c1.906,1.902,3.427,2.189,4.57,0.855    c1.331-0.948,1.141-2.471-0.575-4.569C89.458,318.336,87.936,318.049,86.793,319.195z" fill="#cc7878"/> <path d="M77.374,312.057c-0.57,1.335,0.096,2.478,1.999,3.426c1.521,0.955,2.762,0.767,3.711-0.568    c0.57-1.335-0.096-2.478-1.999-3.433C79.182,310.91,77.945,311.102,77.374,312.057z" fill="#cc7878"/> <path d="M95.646,330.331c-1.715,0.948-1.715,2.666,0,5.137c1.713,2.478,3.328,3.142,4.853,1.998c1.714-1.334,1.714-3.142,0-5.427    C98.978,329.571,97.359,328.993,95.646,330.331z" fill="#cc7878"/> <path d="M105.641,343.174c-1.714,1.526-1.336,3.327,1.142,5.428c2.281,2.279,4.185,2.566,5.708,0.849    c1.524-1.519,1.143-3.326-1.142-5.42C109.068,341.751,107.164,341.463,105.641,343.174z" fill="#cc7878"/> </g> </g>                
    </symbol>
    <symbol id="icon_graduated" viewBox="0 0 30.504 30.504">
       <g> <g> <path d="M18.502,22.654c-0.814-0.546-7.785-5.294-9.664-8.617l-0.103-0.183l-0.212-0.008c-1.618-0.066-2.876,0.87-3.415,1.354    c-0.22-0.223-0.444-0.452-0.673-0.688l-0.273-0.28l-0.271,0.282c-1.061,1.101-1.53,2.125-1.396,3.048    c0.109,0.749,0.621,1.401,1.481,1.888c0.155,0.088,1.95,1.309,3.901,2.867c-0.337,0.344-1.562,1.137-2.006,1.453    c-0.499,0.354-2.578,2.241-2.578,2.241l1.343,0.317l0.465,0.908c0,0,0.638-1.562,1.338-2.333s1.923-1.387,1.923-1.387    s-0.661,0.944-1.135,1.86c-0.473,0.916-0.594,2.504-0.594,2.504l0.821-0.26l0.566,1.234c0,0,0.151-1.744,0.499-2.88    c0.281-0.919,0.97-1.79,1.226-2.095c2.474,2.178,5.059,4.808,5.576,5.339c0.312,0.358,0.716,0.622,1.242,0.739    c0.188,0.041,0.379,0.061,0.565,0.061c1.07,0,2.086-0.667,2.74-1.835c0.764-1.359,0.979-3.449-0.347-4.822    C19.158,22.982,18.814,22.767,18.502,22.654z M8.012,21.457c-1.79-1.408-3.423-2.529-3.661-2.664    c-0.659-0.373-1.031-0.824-1.106-1.34c-0.088-0.606,0.224-1.32,0.928-2.126c1.751,1.792,3.248,3.214,4.519,4.345    C8.117,20.605,8.016,21.106,8.012,21.457z M9.124,19.041c-1.009-0.897-2.164-1.984-3.48-3.302c0.447-0.391,1.43-1.11,2.647-1.139    c0.636,1.043,1.69,2.188,2.878,3.296C10.551,17.959,9.779,18.229,9.124,19.041z M9.893,23.004    c0.064-0.484,0.214-1.151,0.552-1.838c2.226,1.813,3.49,2.476,4.043,2.709c-0.086,0.638-0.231,2.108,0.021,3.452    C13.314,26.145,11.557,24.447,9.893,23.004z M19.212,27.816c-0.471,0.839-1.37,1.65-2.483,1.404    c-1.911-0.422-1.692-4.135-1.446-5.53l0.062-0.353l-0.351-0.082c-0.015-0.004-1.204-0.338-4.142-2.737    c0.552-0.642,1.436-0.929,2.108-1.056c1.659,1.377,3.311,2.567,4.298,3.256c-0.03,0.015-0.058,0.029-0.083,0.045    c-1.138,0.646-1.613,2.515-1.366,3.41c0.29,1.053,0.993,1.729,1.733,1.715c0.316-0.012,1.086-0.19,1.367-1.596l0.044-0.219    l-0.169-0.143c-1.068-0.909-1.646-1.446-1.922-1.715c0.176-0.342,0.408-0.639,0.687-0.797c0.423-0.238,0.904-0.082,1.433,0.467    C20.037,24.983,19.841,26.693,19.212,27.816z M18.116,26.358c-0.132,0.479-0.353,0.767-0.604,0.774c-0.003,0-0.007,0-0.012,0    c-0.314,0-0.755-0.401-0.964-1.159c-0.067-0.242-0.048-0.603,0.042-0.979C16.891,25.287,17.38,25.729,18.116,26.358z" fill="#FFFFFF"/> <path d="M5.959,8.611l-1.196,3.831c0,0,4.888,0.475,8.958,1.744c4.072,1.272,8.361,3.663,8.361,3.663l1.216-3.899    c0,0-3.653-3.682-8.004-5.04C10.945,7.553,5.959,8.611,5.959,8.611z" fill="#FFFFFF"/> <path d="M30.504,14.008l-1.423-1.493l0.14-0.453c0,0,1.254-2.306-1.904-1.88c-0.164,0.032-0.262,0.085-0.317,0.151l-9.397-9.851    L0,4.367l4.841,4.324l0.26-0.833c0,0,5.561-1.179,10.41,0.334c4.85,1.515,8.924,5.62,8.924,5.62l-0.453,1.453l3.636-0.702    c-0.606,1.938-1.302,4.171-1.519,4.862l-1.035-0.324l-0.752,2.406l1.676-0.522l1.232,1.431l0.75-2.406l-1.119-0.351l1.644-5.266    L30.504,14.008z M28.42,13.469c-0.125,0.402-0.553,0.626-0.955,0.501c-0.402-0.126-0.627-0.553-0.502-0.955    c0.127-0.402,0.555-0.626,0.956-0.501S28.545,13.068,28.42,13.469z M27.71,11.077c0.397-0.118,1.071-0.24,0.892,0.334    c-0.018,0.056-0.067,0.218-0.143,0.453L27.71,11.077z" fill="#FFFFFF"/> </g> </g>                
    </symbol>
    <symbol id="icon_instagram" viewBox="0 0 300 300">
       <g id="XMLID_504_"> <path id="XMLID_505_" d="M38.52,0.012h222.978C282.682,0.012,300,17.336,300,38.52v222.978c0,21.178-17.318,38.49-38.502,38.49   H38.52c-21.184,0-38.52-17.313-38.52-38.49V38.52C0,17.336,17.336,0.012,38.52,0.012z M218.546,33.329   c-7.438,0-13.505,6.091-13.505,13.525v32.314c0,7.437,6.067,13.514,13.505,13.514h33.903c7.426,0,13.506-6.077,13.506-13.514   V46.854c0-7.434-6.08-13.525-13.506-13.525H218.546z M266.084,126.868h-26.396c2.503,8.175,3.86,16.796,3.86,25.759   c0,49.882-41.766,90.34-93.266,90.34c-51.487,0-93.254-40.458-93.254-90.34c0-8.963,1.37-17.584,3.861-25.759H33.35v126.732   c0,6.563,5.359,11.902,11.916,11.902h208.907c6.563,0,11.911-5.339,11.911-11.902V126.868z M150.283,90.978   c-33.26,0-60.24,26.128-60.24,58.388c0,32.227,26.98,58.375,60.24,58.375c33.278,0,60.259-26.148,60.259-58.375   C210.542,117.105,183.561,90.978,150.283,90.978z" fill="#cc7878"/> </g>                
    </symbol>

    <symbol id="icon_linkedin" viewBox="0 0 30 30">
       <g transform="matrix(0.319149, 0, 0, 0.319149, 0, 0)"> <path d="M89,0H5C2.239,0,0,2.239,0,5v84c0,2.761,2.239,5,5,5h84c2.762,0,5-2.239,5-5V5C94,2.239,91.762,0,89,0z M26.414,84.201   H10.966V34.503h15.447L26.414,84.201L26.414,84.201z M18.693,27.71c-4.951,0-8.959-4.013-8.959-8.958   c0.001-4.938,4.01-8.952,8.959-8.952c4.939,0,8.951,4.012,8.951,8.952C27.644,23.697,23.632,27.71,18.693,27.71z M84.266,84.2   H68.832V60.033c0-5.764-0.105-13.178-8.029-13.178c-8.033,0-9.268,6.278-9.268,12.759V84.2H36.099V34.503h14.816v6.79h0.207   c2.063-3.907,7.103-8.027,14.614-8.027c15.641,0,18.529,10.294,18.529,23.673V84.2L84.266,84.2z" fill="#cc7878"/> </g>                
    </symbol>
    <symbol id="icon_mortarboard" viewBox="0 0 512 512">
       <g> <g> <g> <path d="M360.465,443.988c-4.574-1.161-9.207,1.638-10.342,6.204l-8.533,34.133c-1.152,4.582,1.638,9.207,6.212,10.351     c0.691,0.179,1.391,0.256,2.074,0.256c3.823,0,7.296-2.586,8.269-6.46l8.533-34.133     C367.821,449.765,365.039,445.132,360.465,443.988z" fill="#FFFFFF"/> <path d="M256,273.066c1.109,0,2.219-0.213,3.26-0.648l93.867-38.844c4.352-1.801,6.417-6.793,4.617-11.145     c-1.801-4.361-6.81-6.409-11.153-4.625L256,255.299L17.067,156.432v-2.833c0-4.71-3.823-8.533-8.533-8.533S0,148.889,0,153.599     v8.533c0,3.456,2.082,6.571,5.274,7.885l247.467,102.4C253.781,272.852,254.891,273.066,256,273.066z" fill="#FFFFFF"/> <path d="M357.513,360.49c-2.082-4.224-7.185-5.965-11.426-3.874c-16.205,8.013-43.273,17.331-81.553,18.603v-76.553     c0-4.71-3.823-8.533-8.533-8.533s-8.533,3.823-8.533,8.533v76.476c-105.958-3.379-140.151-67.567-145.067-78.251v-57.958     c0-4.71-3.823-8.533-8.533-8.533c-4.71,0-8.533,3.823-8.533,8.533v59.733c0,1.084,0.205,2.159,0.606,3.174     c1.485,3.695,37.803,90.692,170.061,90.692c46.225,0,78.618-11.213,97.647-20.617     C357.879,369.825,359.612,364.714,357.513,360.49z" fill="#FFFFFF"/> <path d="M384,452.266c-4.719,0-8.533,3.823-8.533,8.533v25.6c0,4.71,3.814,8.533,8.533,8.533c4.719,0,8.533-3.823,8.533-8.533     v-25.6C392.533,456.089,388.719,452.266,384,452.266z" fill="#FFFFFF"/> <path d="M503.467,145.066c-4.719,0-8.533,3.823-8.533,8.533v2.816l-102.4,42.146v-15.42l114.193-47.258     c3.191-1.314,5.274-4.429,5.274-7.885c0-3.456-2.082-6.562-5.265-7.885L259.26,17.714c-2.091-0.862-4.429-0.862-6.519,0     L5.274,120.114C2.082,121.437,0,124.543,0,127.999c0,3.456,2.082,6.571,5.274,7.885l247.467,102.4     c1.041,0.435,2.15,0.649,3.26,0.649s2.219-0.213,3.26-0.649l89.481-37.026c4.361-1.792,6.426-6.784,4.625-11.145     c-1.801-4.352-6.793-6.409-11.145-4.617L256,221.166L30.848,127.999L256,34.832l225.152,93.167l-97.971,40.542l-93.841-35.038     c0.495-1.775,0.794-3.601,0.794-5.504c0-14.353-14.993-25.6-34.133-25.6s-34.133,11.247-34.133,25.6     c0,14.353,14.993,25.6,34.133,25.6c8.542,0,16.162-2.33,22.084-6.084l97.382,36.361v27.341v0.009v182.878     c-9.907,3.541-17.067,12.919-17.067,24.03c0,14.114,11.486,25.6,25.6,25.6s25.6-11.486,25.6-25.6     c0-11.11-7.159-20.488-17.067-24.03v-48.435c24.499-18.492,33.28-43.119,33.664-44.211c0.307-0.896,0.469-1.843,0.469-2.79     v-59.733c0-4.71-3.814-8.533-8.533-8.533s-8.533,3.823-8.533,8.533v58.155c-1.476,3.618-6.605,14.771-17.067,25.779V217.019     l114.185-46.993c3.2-1.314,5.282-4.437,5.282-7.893v-8.533C512,148.889,508.186,145.066,503.467,145.066z M256,136.532     c-10.419,0-17.067-5.052-17.067-8.533c0-3.482,6.647-8.533,17.067-8.533s17.067,5.052,17.067,8.533     C273.067,131.481,266.419,136.532,256,136.532z M384,426.666c-4.71,0-8.533-3.831-8.533-8.533c0-4.702,3.823-8.533,8.533-8.533     s8.533,3.831,8.533,8.533C392.533,422.834,388.71,426.666,384,426.666z" fill="#FFFFFF"/> <path d="M417.877,450.192c-1.143-4.565-5.786-7.356-10.342-6.204c-4.574,1.143-7.356,5.777-6.212,10.351l8.533,34.133     c0.973,3.874,4.446,6.46,8.269,6.46c0.683,0,1.382-0.077,2.074-0.256c4.574-1.143,7.356-5.769,6.212-10.351L417.877,450.192z" fill="#FFFFFF"/> </g> </g> </g>                
    </symbol>
    <symbol id="icon_search" viewBox="0 0 491.52 491.52">
       <g> <g> <polygon points="289.78,156.47 275.3,170.95 300.245,195.89 275.3,220.84 289.78,235.32 329.205,195.89 		"/> </g> </g> <g> <g> <polygon points="216.22,170.95 201.74,156.47 162.315,195.89 201.74,235.32 216.22,220.84 191.275,195.89 		"/> </g> </g> <g> <g> <rect x="191.072" y="185.685" transform="matrix(0.3417 -0.9398 0.9398 0.3417 -22.4922 359.7389)" width="108.939" height="20.48"/> </g> </g> <g> <g> <path d="M368.64,195.89c0-67.76-55.125-122.88-122.88-122.88s-122.88,55.12-122.88,122.88c0,57.135,39.25,105.142,92.16,118.836
			v23.194h-30.72v92.16c0,33.88,27.56,61.44,61.44,61.44s61.44-27.56,61.44-61.44v-92.16h-30.72v-23.194
			C329.39,301.032,368.64,253.025,368.64,195.89z M286.72,358.4v71.68c0,22.59-18.375,40.96-40.96,40.96
			c-22.585,0-40.96-18.37-40.96-40.96V358.4H286.72z M235.52,337.92v-19.669c3.385,0.281,6.784,0.519,10.24,0.519
			s6.855-0.237,10.24-0.519v19.669H235.52z M245.76,298.29c-56.465,0-102.4-45.94-102.4-102.4c0-56.46,45.935-102.4,102.4-102.4
			c56.465,0,102.4,45.94,102.4,102.4S302.225,298.29,245.76,298.29z"/> </g> </g> <g> <g> <rect x="235.52" y="419.84" width="20.48" height="20.48"/> </g> </g> <g> <g> <rect x="235.52" y="378.88" width="20.48" height="20.48"/> </g> </g> <g> <g> <rect x="174.795" y="32.55" transform="matrix(0.9238 -0.3828 0.3828 0.9238 -4.2457 74.4824)" width="20.479" height="30.719"/> </g> </g> <g> <g> <rect x="88.916" y="118.464" transform="matrix(0.3828 -0.9238 0.9238 0.3828 -62.4311 174.2042)" width="20.481" height="30.722"/> </g> </g> <g> <g> <rect x="83.76" y="245.063" transform="matrix(0.9238 -0.3828 0.3828 0.9238 -90.1825 57.3916)" width="30.719" height="20.479"/> </g> </g> <g> <g> <rect x="382.14" y="239.904" transform="matrix(0.3827 -0.9239 0.9239 0.3827 6.3876 520.0881)" width="20.481" height="30.721"/> </g> </g> <g> <g> <rect x="377.019" y="123.558" transform="matrix(0.9238 -0.3828 0.3828 0.9238 -21.3303 160.3992)" width="30.719" height="20.479"/> </g> </g> <g> <g> <rect x="291.143" y="37.685" transform="matrix(0.3827 -0.9239 0.9239 0.3827 144.9303 312.7564)" width="30.721" height="20.48"/> </g> </g> <g> <g> <rect x="235.52" width="20.48" height="51.2"/> </g> </g> <g> <g> <rect x="116.061" y="49.521" transform="matrix(0.7071 -0.7072 0.7072 0.7071 -16.124 111.3214)" width="20.481" height="51.203"/> </g> </g> <g> <g> <rect x="51.2" y="184.32" width="51.2" height="20.48"/> </g> </g> <g> <g> <rect x="100.709" y="303.801" transform="matrix(0.7071 -0.7071 0.7071 0.7071 -185.0655 181.2938)" width="51.2" height="20.48"/> </g> </g> <g> <g> <rect x="354.988" y="288.48" transform="matrix(0.7072 -0.7071 0.7071 0.7072 -115.1189 350.2134)" width="20.481" height="51.203"/> </g> </g> <g> <g> <rect x="389.12" y="184.32" width="51.2" height="20.48"/> </g> </g> <g> <g> <rect x="339.656" y="64.827" transform="matrix(0.7071 -0.7071 0.7071 0.7071 53.9002 280.2615)" width="51.2" height="20.48"/> </g> </g>                
    </symbol>
    <symbol id="icon_vk" viewBox="0 0 30 30">
       <g transform="matrix(0.319149, 0, 0, 0.319149, 0, 0)"> <path d="M89,0H5C2.238,0,0,2.239,0,5v84c0,2.761,2.238,5,5,5h84c2.762,0,5-2.239,5-5V5C94,2.239,91.762,0,89,0z M74.869,52.943   c2.562,2.5,5.271,4.854,7.572,7.617c1.018,1.22,1.978,2.48,2.709,3.899c1.041,2.024,0.101,4.247-1.713,4.366l-11.256-0.003   c-2.906,0.239-5.22-0.931-7.172-2.918c-1.555-1.585-3.001-3.277-4.5-4.914c-0.611-0.673-1.259-1.306-2.025-1.806   c-1.534-0.996-2.867-0.692-3.748,0.909c-0.896,1.63-1.103,3.438-1.185,5.255c-0.125,2.655-0.925,3.348-3.588,3.471   c-5.69,0.268-11.091-0.596-16.108-3.463c-4.429-2.53-7.854-6.104-10.838-10.146c-5.816-7.883-10.27-16.536-14.27-25.437   c-0.901-2.005-0.242-3.078,1.967-3.119c3.676-0.073,7.351-0.063,11.022-0.004c1.496,0.023,2.485,0.879,3.058,2.289   c1.985,4.885,4.421,9.533,7.471,13.843c0.813,1.147,1.643,2.292,2.823,3.103c1.304,0.896,2.298,0.601,2.913-0.854   c0.393-0.928,0.563-1.914,0.647-2.906c0.292-3.396,0.327-6.792-0.177-10.175c-0.315-2.116-1.507-3.483-3.617-3.883   c-1.074-0.204-0.917-0.602-0.395-1.215c0.906-1.062,1.76-1.718,3.456-1.718l12.721-0.002c2.006,0.392,2.452,1.292,2.725,3.311   l0.012,14.133c-0.021,0.782,0.391,3.098,1.795,3.61c1.123,0.371,1.868-0.53,2.54-1.244c3.048-3.235,5.22-7.056,7.167-11.009   c0.857-1.743,1.6-3.549,2.32-5.356c0.533-1.337,1.367-1.995,2.875-1.971l12.246,0.013c0.36,0,0.729,0.004,1.086,0.063   c2.062,0.355,2.627,1.243,1.99,3.257c-1.004,3.163-2.959,5.799-4.871,8.441c-2.043,2.825-4.224,5.557-6.252,8.396   C72.411,49.38,72.561,50.688,74.869,52.943z" fill="#cc7878"/> </g>                
    </symbol>
    <symbol id="icon_web" viewBox="0 0 480 480">
       <g> <g> <path d="M392,0H88C65.92,0.026,48.026,17.92,48,40v216c0.026,22.08,17.92,39.974,40,40h109.392l-11.424,40H160v16h160v-16h-25.968    l-11.424-40H392c22.08-0.026,39.974-17.92,40-40V40C431.974,17.92,414.08,0.026,392,0z M202.608,336l11.424-40h51.936l11.424,40    H202.608z M416,256c0,13.255-10.745,24-24,24H88c-13.255,0-24-10.745-24-24v-16h352V256z M416,224H64V40c0-13.255,10.745-24,24-24    h304c13.255,0,24,10.745,24,24V224z" fill="#FFFFFF"/> </g> </g> <g> <g> <path d="M304,368H80c-4.418,0-8,3.582-8,8v96c0,4.418,3.582,8,8,8h224c4.418,0,8-3.582,8-8v-96C312,371.582,308.418,368,304,368z     M296,464H88v-80h208V464z" fill="#FFFFFF"/> </g> </g> <g> <g> <rect x="104" y="432" width="16" height="16" fill="#FFFFFF"/> </g> </g> <g> <g> <rect x="104" y="400" width="16" height="16" fill="#FFFFFF"/> </g> </g> <g> <g> <rect x="136" y="400" width="16" height="16" fill="#FFFFFF"/> </g> </g> <g> <g> <rect x="168" y="400" width="16" height="16" fill="#FFFFFF"/> </g> </g> <g> <g> <rect x="232" y="400" width="16" height="16" fill="#FFFFFF"/> </g> </g> <g> <g> <rect x="200" y="400" width="16" height="16" fill="#FFFFFF"/> </g> </g> <g> <g> <rect x="264" y="432" width="16" height="16" fill="#FFFFFF"/> </g> </g> <g> <g> <rect x="264" y="400" width="16" height="16" fill="#FFFFFF"/> </g> </g> <g> <g> <rect x="136" y="432" width="112" height="16" fill="#FFFFFF"/> </g> </g> <g> <g> <path d="M368,368c-22.091,0-40,17.909-40,40v32c0,22.091,17.909,40,40,40c22.091,0,40-17.909,40-40v-32    C408,385.909,390.091,368,368,368z M392,440c0,13.255-10.745,24-24,24s-24-10.745-24-24v-32c0-13.255,10.745-24,24-24    s24,10.745,24,24V440z" fill="#FFFFFF"/> </g> </g> <g> <g> <rect x="360" y="400" width="16" height="16" fill="#FFFFFF"/> </g> </g> <g> <g> <rect x="181.737" y="120.139" transform="matrix(0.2751 -0.9614 0.9614 0.2751 50.7457 323.5759)" width="116.43" height="15.993" fill="#FFFFFF"/> </g> </g> <g> <g> <path d="M197.12,94.144l-10.24-12.288l-48,40c-3.393,2.83-3.85,7.874-1.02,11.268c0.309,0.37,0.65,0.712,1.02,1.02l48,40    l10.24-12.288L156.496,128L197.12,94.144z" fill="#FFFFFF"/> </g> </g> <g> <g> <path d="M342.14,122.876c-0.309-0.37-0.65-0.712-1.02-1.02l-48-40l-10.24,12.288L323.504,128l-40.624,33.856l10.24,12.288l48-40    C344.513,131.314,344.97,126.27,342.14,122.876z" fill="#FFFFFF"/> </g> </g>                
    </symbol></svg>