<?xml version="1.0" encoding="utf-8"?>
<svg viewBox="0 0 578 648" width="578" height="648" xmlns="http://www.w3.org/2000/svg">
  <g transform="matrix(0.1, 0, 0, -0.1, 0, 648)" fill="#000000" stroke="none">
    <path d="M950 3300 l0 -3000 240 0 240 0 2 263 3 262 342 3 c300 2 343 0 357 -14 14 -13 16 -51 16 -265 l0 -249 240 0 240 0 0 3000 0 3000 -840 0 -840 0 0 -3000z m1184 2494 c14 -14 16 -239 16 -2323 0 -1941 -2 -2310 -14 -2320 -9 -8 -112 -11 -357 -9 l-344 3 -3 2319 c-1 1706 1 2322 9 2332 9 11 76 14 345 14 289 0 335 -2 348 -16z" style="fill: rgb(255, 255, 255);"/>
    <path d="M3050 3300 l0 -3000 840 0 840 0 0 2565 0 2565 -410 0 -410 0 0 -160 0 -160 168 -2 167 -3 3 -2144 c1 -1576 -1 -2147 -9 -2157 -9 -11 -76 -14 -345 -14 -289 0 -335 2 -348 16 -14 14 -16 254 -16 2494 0 2240 2 2480 16 2494 14 14 82 16 600 16 l584 0 0 245 0 245 -840 0 -840 0 0 -3000z" style="fill: rgb(255, 255, 255);"/>
  </g>
</svg>